<?xml version="1.0" encoding="iso-8859-1"?>
<!-- Uploaded to: SVG Repo, www.svgrepo.com, Generator: SVG Repo Mixer Tools -->
<svg version="1.1" id="Layer_1" xmlns="http://www.w3.org/2000/svg" xmlns:xlink="http://www.w3.org/1999/xlink" 
	 viewBox="0 0 512 512" xml:space="preserve">
<path d="M355,512H157c-35.2,0-64-28.8-64-64V64c0-35.2,28.8-64,64-64h198c35.2,0,64,28.8,64,64v384C419,483.2,390.2,512,355,512z"/>
<rect x="118" y="60.416" style="fill:#FF583E;" width="280" height="376.96"/>
<g>
	<circle style="fill:#FFFFFF;" cx="256" cy="30.176" r="12"/>
	<path style="fill:#FFFFFF;" d="M283.128,488.272h-54.264c-7.496,0-13.568-6.064-13.568-13.568c0-7.496,6.064-13.568,13.568-13.568
		h54.264c7.496,0,13.568,6.064,13.568,13.568C296.696,482.208,290.632,488.272,283.128,488.272z"/>
	<rect x="151.216" y="350.296" style="fill:#FFFFFF;" width="209.6" height="8"/>
	<rect x="174.472" y="377.2" style="fill:#FFFFFF;" width="163.064" height="8"/>
</g>
<path style="fill:#FFD67F;" d="M256,318.312l-8.696-11.488c-6.4-8.368-62.416-83.144-62.416-120.392
	c0-44.688,27.896-73.568,71.112-73.568s71.112,28.88,71.112,73.568c0,37.2-56.016,111.968-62.36,120.392L256,318.312z"/>
<circle cx="255.944" cy="186.928" r="23.032"/>
</svg>